<?xml version="1.0" standalone="no"?>
<!DOCTYPE svg PUBLIC "-//W3C//DTD SVG 20010904//EN"
 "http://www.w3.org/TR/2001/REC-SVG-20010904/DTD/svg10.dtd">
<svg version="1.0" xmlns="http://www.w3.org/2000/svg"
 width="962.000000pt" height="962.000000pt" viewBox="0 0 962.000000 962.000000"
 preserveAspectRatio="xMidYMid meet">
<metadata>
Created by potrace 1.14, written by Peter Selinger 2001-2017
</metadata>
<g transform="translate(0.000000,962.000000) scale(0.100000,-0.100000)"
fill="#000000" stroke="none">
<path d="M1820 9563 c-486 -51 -903 -253 -1227 -596 -292 -309 -466 -688 -512
-1119 -15 -136 -15 -5900 0 -6036 46 -431 220 -810 512 -1119 284 -300 639
-493 1062 -576 l110 -21 2970 -4 c2111 -2 3002 0 3080 8 467 47 881 247 1200
581 269 282 437 613 508 1004 l22 120 0 3025 0 3025 -22 120 c-56 307 -174
582 -354 825 -83 111 -281 310 -392 392 -235 174 -504 290 -812 351 l-110 21
-3000 2 c-1650 0 -3016 -1 -3035 -3z m6080 -690 c249 -62 445 -170 608 -335
181 -182 285 -370 345 -622 l22 -91 0 -2995 0 -2995 -22 -91 c-60 -252 -164
-439 -346 -622 -162 -165 -358 -272 -607 -335 l-85 -21 -2940 -4 c-1974 -2
-2970 0 -3030 7 -286 33 -539 156 -742 363 -172 174 -277 366 -336 612 l-22
91 0 2990 c0 2882 1 2993 19 3075 22 101 67 233 106 311 78 154 230 335 369
440 167 124 380 212 583 238 35 5 1397 8 3028 7 l2965 -2 85 -21z"/>
<path d="M1795 8695 c-214 -39 -403 -140 -561 -299 -133 -135 -221 -288 -277
-484 l-22 -77 -3 -2955 c-2 -2135 0 -2977 8 -3035 15 -102 60 -239 111 -335
141 -261 366 -441 661 -527 l93 -28 2955 -3 c2135 -2 2977 0 3035 8 373 52
702 323 835 689 64 174 60 -33 60 3181 0 3214 4 3007 -60 3181 -131 358 -439
620 -807 684 -75 13 -463 15 -3022 14 -2347 -1 -2950 -3 -3006 -14z m6029
-302 c275 -79 476 -282 549 -557 l22 -81 0 -2920 c0 -3299 8 -2988 -80 -3163
-104 -207 -275 -345 -499 -405 l-81 -22 -2920 0 c-3299 0 -2988 -8 -3163 80
-207 104 -345 275 -405 499 l-22 81 0 2925 0 2925 22 81 c84 315 342 540 657
574 39 4 1369 7 2956 6 l2885 -1 79 -22z"/>
<path d="M5853 8218 c14 -159 72 -297 169 -403 33 -36 58 -65 55 -65 -2 0 -47
20 -98 45 -167 78 -268 107 -400 112 -178 8 -316 -33 -445 -130 -84 -64 -170
-182 -198 -274 -21 -66 285 -128 456 -92 29 6 119 42 199 79 186 88 247 108
361 120 142 15 245 12 313 -8 l60 -18 -71 -7 c-133 -13 -274 -78 -364 -167
-59 -59 -118 -161 -144 -250 -17 -57 -34 -230 -23 -230 4 0 36 11 72 25 137
51 223 137 316 317 97 187 175 251 304 250 44 0 80 -8 124 -27 66 -27 223
-112 279 -150 l32 -22 -72 4 c-147 10 -282 -43 -401 -156 -105 -101 -175 -228
-195 -355 l-9 -58 30 6 c78 16 241 112 309 183 20 21 65 76 100 122 105 140
215 198 325 172 64 -16 171 -99 350 -274 l132 -129 52 24 52 23 -50 60 c-79
95 -249 255 -355 334 -152 114 -175 164 -202 422 -9 89 -23 167 -35 200 -27
70 -83 144 -143 187 l-48 34 -10 -27 c-24 -64 -33 -176 -21 -271 13 -107 39
-186 87 -262 19 -29 34 -54 34 -57 0 -2 -55 23 -122 55 -68 32 -171 75 -229
95 -98 34 -109 40 -142 83 -44 58 -97 164 -137 271 -37 102 -44 116 -86 168
-35 43 -157 113 -197 113 -19 0 -20 -4 -14 -72z"/>
<path d="M4575 8214 c-16 -2 -79 -9 -140 -15 -133 -13 -335 -49 -466 -83
-1138 -296 -2035 -1144 -2392 -2261 -170 -533 -203 -1136 -91 -1695 79 -396
249 -820 461 -1147 l40 -61 1254 544 c690 300 1298 564 1352 587 l97 41 0 558
0 557 -63 -27 c-34 -15 -151 -65 -260 -112 l-196 -85 -3 -273 -3 -274 -375
-163 c-1566 -682 -1574 -685 -1587 -668 -22 29 -111 266 -147 390 -79 273
-110 499 -110 803 0 236 10 343 50 551 203 1050 987 1906 2019 2204 l150 43 3
-419 c1 -230 6 -419 10 -419 5 0 121 49 258 109 l249 108 3 607 2 606 -42 -1
c-24 -1 -56 -4 -73 -5z"/>
<path d="M7350 6674 c-129 -56 -239 -104 -243 -106 -5 -2 34 -66 85 -143 102
-151 185 -300 243 -435 287 -662 321 -1387 98 -2065 -65 -198 -175 -435 -276
-594 l-34 -54 -110 154 c-60 85 -462 654 -892 1264 -431 611 -790 1116 -797
1124 -11 12 -48 -1 -253 -90 l-241 -104 0 -2092 c0 -1987 1 -2093 18 -2093 84
1 431 41 484 56 17 5 18 96 20 1690 l3 1684 859 -1217 c473 -670 863 -1222
869 -1228 11 -13 148 130 271 285 509 638 765 1398 743 2210 -10 387 -71 709
-202 1075 -76 213 -288 623 -395 763 -15 19 -22 17 -250 -84z"/>
<path d="M3335 2962 c-140 -55 -257 -150 -358 -287 -111 -152 -245 -215 -364
-172 -47 18 -189 134 -335 276 l-129 124 -46 -19 c-26 -10 -48 -23 -50 -29 -4
-15 139 -172 237 -261 47 -42 126 -108 176 -146 155 -116 165 -140 204 -486 6
-51 18 -112 27 -135 35 -91 108 -178 179 -215 20 -11 23 -8 35 36 9 29 14 96
14 177 0 152 -19 229 -84 335 -21 36 -38 66 -37 67 1 1 49 -21 106 -49 58 -28
163 -73 233 -98 124 -46 129 -49 168 -100 46 -61 96 -163 134 -270 35 -99 65
-149 116 -194 38 -35 110 -74 168 -91 l24 -7 -6 83 c-11 160 -77 312 -180 417
-28 28 -46 52 -40 52 5 0 53 -20 104 -44 187 -89 328 -122 473 -113 248 15
449 145 554 356 l36 73 -23 19 c-13 10 -53 28 -89 40 -81 26 -290 37 -371 20
-29 -6 -124 -45 -211 -86 -205 -98 -273 -115 -465 -121 -130 -5 -158 -3 -210
15 l-60 19 40 1 c22 1 71 8 108 16 274 58 466 298 467 584 l0 63 -27 -6 c-66
-16 -170 -77 -226 -133 -70 -71 -86 -94 -143 -208 -58 -115 -102 -171 -166
-215 -49 -34 -54 -35 -142 -35 -84 0 -97 3 -168 37 -42 20 -121 62 -175 95
l-98 58 115 6 c92 4 127 11 177 31 164 69 289 202 353 377 30 82 48 171 34
171 -5 -1 -41 -13 -79 -28z"/>
</g>
</svg>
